<svg width="221" height="44" viewBox="0 0 221 44" fill="none" xmlns="http://www.w3.org/2000/svg">
<path d="M13.6327 43.9462C11.1516 43.9462 8.8177 43.4626 6.63099 42.4954C4.48634 41.5282 2.53092 39.8671 0.764731 37.5122L6.00021 32.466C7.42998 33.9378 8.79667 34.9891 10.1003 35.6199C11.4039 36.2506 12.8337 36.566 14.3896 36.566C15.3147 36.566 16.0507 36.3768 16.5973 35.9983C17.1861 35.5778 17.4804 35.0732 17.4804 34.4845C17.4804 33.9798 17.3122 33.5593 16.9758 33.2229C16.6394 32.8865 16.0086 32.5501 15.0835 32.2136C14.1583 31.8772 12.8126 31.4777 11.0465 31.0152C7.80845 30.2162 5.39046 29.0597 3.79248 27.5459C2.23655 25.9899 1.45859 23.9294 1.45859 21.3642C1.45859 19.5139 1.94219 17.8318 2.90939 16.318C3.87658 14.762 5.2643 13.5215 7.07254 12.5964C8.88078 11.6712 11.0254 11.2086 13.5065 11.2086C16.4501 11.2086 18.9522 11.7764 21.0128 12.9118C23.0733 14.0051 24.7765 15.3508 26.1221 16.9488L20.4451 21.8058C19.5199 20.9647 18.4056 20.2498 17.102 19.6611C15.7983 19.0724 14.3265 18.778 12.6865 18.778C11.8034 18.778 11.0465 18.9462 10.4157 19.2826C9.7849 19.6191 9.46951 20.1237 9.46951 20.7965C9.46951 21.4273 9.84797 21.9529 10.6049 22.3735C11.3618 22.794 12.8757 23.2776 15.1465 23.8243C18.9733 24.7494 21.7067 25.9899 23.3467 27.5459C25.0288 29.1018 25.8698 31.1834 25.8698 33.7906C25.8698 35.8091 25.3442 37.5963 24.2929 39.1522C23.2416 40.6661 21.7908 41.8436 19.9405 42.6846C18.0902 43.5257 15.9876 43.9462 13.6327 43.9462ZM28.9084 43V0.0438272H38.1178V43H28.9084ZM48.4626 43V24.7074C48.4626 22.9412 48.1472 21.7847 47.5164 21.2381C46.8856 20.6493 46.0446 20.355 44.9933 20.355C44.1102 20.355 43.1851 20.5442 42.2179 20.9227C41.2927 21.2591 40.3886 21.7427 39.5055 22.3735C38.6224 23.0042 37.8445 23.7191 37.1716 24.5181L34.4593 18.0211C35.5526 16.8016 36.7932 15.6872 38.1809 14.6779C39.5686 13.6687 41.0825 12.8697 42.7225 12.281C44.3625 11.6922 46.0867 11.3979 47.8949 11.3979C49.9554 11.3979 51.6375 11.7553 52.9411 12.4702C54.2448 13.143 55.233 14.0892 55.9058 15.3087C56.6207 16.5282 57.0833 17.916 57.2935 19.4719C57.5458 20.9858 57.672 22.5627 57.672 24.2027V43H48.4626ZM72.351 43.7569C70.0801 43.7569 68.2299 43.4205 66.8001 42.7477C65.4124 42.0749 64.319 41.1497 63.52 39.9723C62.7631 38.7527 62.2374 37.3861 61.9431 35.8722C61.6908 34.3163 61.5646 32.6762 61.5646 30.9521V12.1548H70.774V30.4475C70.774 32.1716 71.1314 33.328 71.8463 33.9168C72.5612 34.4634 73.4443 34.7368 74.4956 34.7368C75.4208 34.7368 76.3249 34.5896 77.208 34.2952C78.0911 33.9588 78.9531 33.4962 79.7942 32.9075C80.6352 32.2767 81.3921 31.5198 82.065 30.6367L83.6419 35.3045H81.0557V12.1548H90.3282V43H83.4527L81.5604 36.8814L84.7143 37.1337C83.705 38.3112 82.5276 39.4256 81.1819 40.4769C79.8783 41.4861 78.4906 42.2851 77.0187 42.8738C75.5469 43.4626 73.991 43.7569 72.351 43.7569ZM113.964 11.3979C116.025 11.3979 117.707 11.7553 119.011 12.4702C120.314 13.143 121.302 14.0892 121.975 15.3087C122.69 16.5282 123.153 17.916 123.363 19.4719C123.615 20.9858 123.741 22.5627 123.741 24.2027V43H114.532V24.7074C114.532 22.9412 114.217 21.7847 113.586 21.2381C112.955 20.6493 112.114 20.355 111.063 20.355C110.18 20.355 109.254 20.5442 108.287 20.9227C107.362 21.2591 106.458 21.7427 105.575 22.3735C104.692 23.0042 103.914 23.7191 103.241 24.5181L101.601 19.8503H104.187V43H94.9778V12.1548H101.79L103.683 18.2734L100.529 18.0211C101.622 16.8016 102.863 15.6872 104.25 14.6779C105.638 13.6687 107.152 12.8697 108.792 12.281C110.432 11.6922 112.156 11.3979 113.964 11.3979ZM146.937 11.3979C148.998 11.3979 150.68 11.7553 151.984 12.4702C153.287 13.143 154.275 14.0892 154.948 15.3087C155.663 16.5282 156.126 17.916 156.336 19.4719C156.588 20.9858 156.714 22.5627 156.714 24.2027V43H147.505V24.7074C147.505 22.9412 147.19 21.7847 146.559 21.2381C145.928 20.6493 145.087 20.355 144.036 20.355C143.153 20.355 142.228 20.5442 141.26 20.9227C140.335 21.2591 139.431 21.7427 138.548 22.3735C137.665 23.0042 136.887 23.7191 136.214 24.5181L134.574 19.8503H137.16V43H127.951V12.1548H134.763L136.656 18.2734L133.502 18.0211C134.595 16.8016 135.836 15.6872 137.223 14.6779C138.611 13.6687 140.125 12.8697 141.765 12.281C143.405 11.6922 145.129 11.3979 146.937 11.3979ZM174.556 43.7569C171.402 43.7569 168.627 43.0631 166.23 41.6754C163.875 40.2876 162.046 38.3743 160.742 35.9353C159.438 33.4962 158.787 30.6998 158.787 27.5459C158.787 24.392 159.438 21.6165 160.742 19.2196C162.046 16.7805 163.875 14.8672 166.23 13.4795C168.627 12.0917 171.402 11.3979 174.556 11.3979C178.004 11.3979 180.99 12.2389 183.513 13.921C186.036 15.6031 187.845 17.8739 188.938 20.7334L180.612 24.455C180.023 23.1514 179.245 22.1422 178.278 21.4273C177.311 20.6704 176.091 20.2919 174.619 20.2919C172.769 20.2919 171.213 20.9437 169.951 22.2473C168.69 23.5089 168.059 25.2751 168.059 27.5459C168.059 29.8167 168.69 31.6039 169.951 32.9075C171.213 34.1691 172.769 34.7998 174.619 34.7998C176.091 34.7998 177.311 34.4424 178.278 33.7275C179.245 33.0126 180.023 32.0034 180.612 30.6998L188.938 34.3583C187.845 37.2178 186.015 39.5097 183.45 41.2338C180.885 42.9159 177.92 43.7569 174.556 43.7569ZM197.311 27.4828V26.2843L209.927 12.1548H220.272L206.268 27.9874L206.016 24.9597L220.587 43H209.864L197.311 27.4828ZM190.94 0.0438272H200.087V43H190.94V0.0438272Z" fill="#f8f8f8"/>
</svg>
