<svg width="512" height="512" viewBox="0 0 512 512" fill="none" xmlns="http://www.w3.org/2000/svg">
<path d="M352.804 236.816C346.905 220.633 364.683 220.073 376.885 223.955L463.959 257.467C463.959 216.956 392.058 125.091 294.574 105.743L255.645 67.0007L217.065 105.743C119.592 125.091 48.0408 216.968 48.0408 257.467L135.074 223.955C147.275 220.073 165.106 220.633 159.207 236.816L134.112 334.405L176.927 252.057C195.844 229.44 231.196 237.796 233.104 263.927L255.645 445.99L277.691 263.927C277.691 235.934 315.632 228.789 335.084 252.057L377.003 334.405L352.804 236.816Z" fill="#F8F8F8"/>
</svg>
